<?xml version="1.0" standalone="no"?>
<!DOCTYPE svg PUBLIC "-//W3C//DTD SVG 20010904//EN"
 "http://www.w3.org/TR/2001/REC-SVG-20010904/DTD/svg10.dtd">
<svg version="1.0" xmlns="http://www.w3.org/2000/svg"
 width="500.000000pt" height="500.000000pt" viewBox="0 0 500.000000 500.000000"
 preserveAspectRatio="xMidYMid meet">

<g transform="translate(0.000000,500.000000) scale(0.100000,-0.100000)"
fill="#000000" stroke="none">
<path d="M2750 2809 c-105 -17 -207 -60 -420 -175 -244 -132 -192 -118 -571
-149 -326 -26 -466 -72 -699 -227 -41 -28 -85 -59 -97 -70 l-21 -20 20 -34
c11 -19 26 -54 33 -78 11 -37 11 -47 -1 -64 -13 -18 -11 -23 22 -49 l36 -29
-52 -28 c-28 -15 -50 -30 -48 -31 2 -2 89 0 193 5 137 7 193 14 200 23 8 11
17 6 43 -20 21 -22 28 -35 20 -37 -7 -2 -103 -14 -213 -27 -166 -19 -193 -24
-165 -32 45 -12 83 -10 1740 73 767 38 1408 71 1425 71 63 3 -49 17 -227 30
l-176 12 30 37 c31 36 32 37 146 49 131 14 156 22 172 50 25 47 34 241 11 241
-3 0 -55 -48 -116 -107 l-110 -107 -7 61 c-13 122 -79 218 -183 265 -68 31
-190 32 -256 2 -100 -46 -162 -128 -183 -241 l-12 -68 -155 -22 c-301 -43
-809 -96 -1139 -119 l-95 -6 -1 69 c-2 255 -295 390 -514 238 -94 -65 -144
-225 -104 -330 5 -13 -9 -15 -87 -15 -52 0 -104 3 -116 6 -19 5 -20 9 -10 25
10 16 5 32 -30 99 -23 45 -40 87 -37 94 3 7 51 36 108 64 57 29 128 72 158 97
109 89 242 118 653 140 160 8 326 18 369 21 70 6 78 5 73 -10 -5 -13 1 -16 38
-16 37 0 45 3 45 18 0 17 18 19 188 31 332 21 591 70 636 120 16 18 16 21 1
51 -9 17 -28 35 -42 41 -40 15 -222 30 -363 30 -149 1 -215 -17 -330 -86 -62
-37 -70 -45 -48 -45 33 0 59 -37 37 -51 -8 -5 -21 -9 -30 -9 -9 0 -37 -3 -63
-6 -42 -6 -46 -5 -41 12 3 10 -1 5 -10 -13 -16 -35 -42 -53 -76 -53 -17 0 -11
8 32 43 29 23 56 42 59 42 3 1 19 9 35 19 17 9 21 14 10 11 -27 -8 -15 2 78
68 42 31 102 65 132 76 157 59 406 47 831 -40 257 -52 262 -54 123 -63 -62 -4
-151 -14 -196 -22 -83 -14 -248 -62 -241 -70 3 -2 52 7 110 20 181 41 305 50
610 43 l278 -6 0 30 c0 39 -22 47 -68 24 -75 -35 -158 -31 -387 20 -278 61
-394 83 -550 100 -142 16 -319 18 -405 4z m871 -539 c-7 -54 -35 -68 -45 -23
-4 15 -9 37 -12 48 -5 18 -4 18 11 -2 21 -30 31 -29 39 3 10 40 14 25 7 -26z
m105 -33 c-30 -39 -26 -47 23 -48 29 -1 26 -3 -19 -10 -30 -4 -61 -6 -67 -4
-23 8 -14 32 16 45 16 6 37 20 47 31 27 30 27 22 0 -14z m-2159 7 c-3 -3 -12
-4 -19 -1 -8 3 -5 6 6 6 11 1 17 -2 13 -5z m1983 -66 c0 -15 -9 -18 -52 -17
-48 0 -50 2 -25 11 35 13 34 21 -5 52 l-33 26 57 -27 c37 -18 58 -34 58 -45z
m-1805 22 c10 -11 16 -20 13 -20 -3 0 -13 9 -23 20 -10 11 -16 20 -13 20 3 0
13 -9 23 -20z m-174 -40 c4 0 12 12 18 28 9 23 10 21 5 -18 -9 -65 -36 -78
-47 -23 -3 16 -9 37 -12 48 -4 13 0 10 11 -7 10 -16 22 -28 25 -28z m2032 23
c-14 -5 -18 -33 -5 -33 4 0 13 4 20 10 7 5 5 2 -3 -7 -11 -13 -18 -14 -26 -6
-14 14 -5 43 13 42 10 0 10 -2 1 -6z m-1892 -39 c-39 -32 -40 -54 -4 -54 37 0
22 -11 -27 -20 -67 -12 -70 10 -8 58 58 45 88 57 39 16z m67 1 c-3 -3 -9 2
-12 12 -6 14 -5 15 5 6 7 -7 10 -15 7 -18z m-248 -70 c0 -18 -19 -22 -65 -14
-22 3 -30 7 -18 8 36 2 35 17 -5 49 l-37 31 63 -31 c34 -17 62 -37 62 -43z
m2040 -2 c-11 -22 -14 -24 -17 -10 -6 23 -24 22 -59 -5 -18 -13 -12 -4 16 25
39 41 46 45 59 32 12 -12 13 -18 1 -42z m144 15 c41 -29 39 -37 -4 -13 -36 21
-53 19 -45 -5 9 -27 1 -25 -20 6 -13 20 -14 28 -5 40 13 15 16 14 74 -28z
m-2347 0 c-3 -8 -6 -5 -6 6 -1 11 2 17 5 13 3 -3 4 -12 1 -19z m400 0 c-3 -8
-6 -5 -6 6 -1 11 2 17 5 13 3 -3 4 -12 1 -19z m30 -10 c-3 -8 -6 -5 -6 6 -1
11 2 17 5 13 3 -3 4 -12 1 -19z m-197 -18 c0 -14 -6 -20 -22 -19 -17 1 -19 2
-5 6 9 2 17 11 17 19 0 8 2 14 5 14 3 0 5 -9 5 -20z m197 -32 c-3 -7 -5 -2 -5
12 0 14 2 19 5 13 2 -7 2 -19 0 -25z m-430 -10 c-3 -8 -6 -5 -6 6 -1 11 2 17
5 13 3 -3 4 -12 1 -19z m2128 -42 c6 -4 1 -4 -10 2 -11 6 -31 23 -45 39 l-25
28 35 -30 c19 -16 40 -34 45 -39z m-1775 -13 c0 -1 -16 5 -35 14 -41 20 -49
15 -36 -21 14 -36 8 -33 -22 12 -22 35 -23 39 -8 49 12 8 25 4 59 -20 23 -17
42 -32 42 -34z m-164 43 c3 -7 -4 -29 -16 -47 -20 -32 -21 -33 -14 -6 8 34 -3
34 -52 1 l-39 -26 45 46 c45 47 67 56 76 32z m1854 -41 c33 -35 34 -35 9 -35
-13 0 -384 -18 -823 -40 -440 -23 -805 -40 -812 -38 -8 2 -2 15 16 36 23 28
31 32 46 22 27 -15 1506 61 1512 78 6 19 16 15 52 -23z m275 -6 c-42 -19 -105
-24 -140 -9 -12 5 1 6 35 3 37 -4 66 0 90 10 50 22 63 19 15 -4z m-2171 -108
c-4 -5 -91 47 -99 58 -3 5 19 -5 49 -22 29 -18 52 -34 50 -36z m191 34 c-16
-14 -34 -25 -40 -25 -9 0 55 49 65 49 3 0 -8 -11 -25 -24z m-102 -42 c-13 -2
-33 -2 -45 0 -13 2 -3 4 22 4 25 0 35 -2 23 -4z"/>
<path d="M3513 2526 c-42 -14 -133 -63 -133 -72 0 -2 17 3 38 12 154 68 312
57 427 -32 52 -39 57 -34 16 16 -48 59 -112 84 -216 87 -55 2 -106 -3 -132
-11z"/>
<path d="M2895 2480 c-221 -33 -594 -96 -645 -110 -19 -6 -45 -10 -57 -10 -20
0 -21 3 -13 26 16 41 11 42 -10 3 -16 -30 -28 -38 -67 -48 -173 -45 -189 -57
-157 -123 36 -72 142 -178 179 -178 3 0 -1 13 -10 30 -18 34 -45 143 -45 182
0 30 25 51 72 62 l27 6 4 -77 3 -78 2 77 2 77 38 10 c80 21 428 82 637 111
121 16 230 32 243 34 32 5 37 -13 23 -95 -24 -145 -72 -226 -148 -248 l-38
-11 44 5 c61 8 150 41 178 67 28 26 62 130 70 216 11 115 -10 120 -332 72z"/>
<path d="M4073 2503 c9 -2 23 -2 30 0 6 3 -1 5 -18 5 -16 0 -22 -2 -12 -5z"/>
<path d="M2883 2113 c9 -2 23 -2 30 0 6 3 -1 5 -18 5 -16 0 -22 -2 -12 -5z"/>
<path d="M2528 2073 c6 -2 18 -2 25 0 6 3 1 5 -13 5 -14 0 -19 -2 -12 -5z"/>
<path d="M2428 2063 c12 -2 30 -2 40 0 9 3 -1 5 -23 4 -22 0 -30 -2 -17 -4z"/>
<path d="M2165 2050 c-3 -5 1 -10 10 -10 9 0 13 5 10 10 -3 6 -8 10 -10 10 -2
0 -7 -4 -10 -10z"/>
<path d="M3783 1755 c-44 -19 -67 -56 -58 -95 7 -32 36 -52 93 -65 38 -8 50
-28 32 -50 -19 -22 -65 -19 -82 7 -11 17 -20 20 -42 14 -22 -5 -26 -11 -21
-29 12 -40 43 -57 102 -57 47 0 59 4 84 29 55 55 35 113 -46 136 -60 18 -74
44 -35 65 25 13 60 4 60 -16 0 -9 11 -14 30 -14 25 0 30 4 30 24 0 54 -78 81
-147 51z"/>
<path d="M3503 1743 c-24 -2 -43 -6 -43 -9 0 -6 -29 -204 -35 -242 -6 -33 -5
-33 27 -30 24 2 34 8 36 23 8 55 13 65 33 65 15 0 25 -11 36 -40 15 -37 19
-40 54 -40 l39 0 -22 44 -21 45 31 36 c47 53 43 113 -9 140 -27 15 -40 15
-126 8z m97 -68 c17 -21 -12 -64 -45 -66 -14 -1 -31 -2 -37 -3 -12 -1 -13 58
-1 77 8 13 70 7 83 -8z"/>
<path d="M3214 1678 c-15 -29 -49 -95 -76 -145 l-50 -93 36 0 c29 0 38 5 51
30 14 28 20 30 70 30 49 0 55 -2 61 -24 5 -20 11 -23 32 -20 15 3 28 7 30 8 1
2 -12 62 -30 135 l-32 131 -33 0 c-29 0 -35 -5 -59 -52z m70 -100 c6 -27 5
-28 -29 -28 -19 0 -35 2 -35 5 0 2 10 25 22 50 24 50 22 52 42 -27z"/>
<path d="M2894 1701 c-103 -47 -135 -189 -57 -250 31 -25 110 -28 152 -6 33
17 81 70 81 90 0 20 -48 9 -82 -20 -38 -32 -102 -35 -118 -6 -29 56 12 135 77
147 26 5 37 1 58 -20 30 -30 75 -35 75 -8 0 43 -66 92 -122 92 -13 0 -41 -9
-64 -19z"/>
<path d="M2473 1550 l-19 -140 77 0 c95 0 109 5 109 39 0 25 -1 26 -55 23 -64
-4 -63 -10 -41 131 l13 87 -32 0 -32 0 -20 -140z"/>
<path d="M2335 1553 c-10 -71 -20 -134 -22 -140 -4 -9 6 -13 29 -13 l35 0 20
140 19 140 -31 0 -32 0 -18 -127z"/>
<path d="M2063 1531 c-40 -76 -73 -141 -73 -145 0 -3 15 -6 33 -6 26 0 36 6
45 24 20 44 124 50 130 9 3 -18 10 -23 33 -23 37 0 36 1 -2 155 l-31 125 -32
0 c-30 0 -34 -6 -103 -139z m111 -7 c7 -30 6 -32 -28 -36 -42 -5 -43 1 -14 53
23 42 30 39 42 -17z"/>
<path d="M1833 1653 c-40 -2 -73 -7 -73 -11 0 -4 -3 -17 -6 -29 -6 -21 -3 -23
40 -23 44 0 45 -1 41 -27 -32 -180 -31 -193 5 -193 32 0 28 -11 52 145 l13 80
43 3 c23 2 42 6 42 10 0 4 3 17 6 30 7 24 19 23 -163 15z"/>
<path d="M1553 1633 c-13 -2 -23 -7 -23 -11 0 -4 -9 -65 -20 -137 -10 -71 -18
-131 -16 -132 1 -2 44 0 94 3 88 7 92 8 92 30 0 23 -4 24 -61 24 -52 0 -60 2
-55 16 3 9 6 21 6 29 0 8 18 14 50 17 57 6 55 5 65 37 7 23 6 24 -49 19 -53
-4 -56 -3 -56 18 0 29 9 34 75 41 50 5 55 8 55 29 0 23 -3 24 -67 23 -38 -1
-78 -4 -90 -6z"/>
<path d="M1223 1480 l-19 -140 33 0 c28 0 33 4 33 23 1 78 40 92 70 24 18 -40
21 -43 54 -39 l34 4 -19 43 -19 43 30 30 c24 24 30 39 30 71 0 66 -23 81 -123
81 l-84 0 -20 -140z m157 75 c26 -31 -15 -75 -71 -75 -20 0 -25 23 -13 68 5
17 14 22 39 22 18 0 38 -7 45 -15z"/>
</g>
</svg>
